<svg width="151" height="110" viewBox="0 0 151 110" fill="none" xmlns="http://www.w3.org/2000/svg">
<path d="M150.701 74.7854C150.823 74.356 150.9 73.915 150.931 73.4696C151.014 72.6421 150.821 71.8103 150.383 71.1027C149.781 70.289 148.905 69.7207 147.916 69.5032C147.408 69.3354 146.901 69.1676 146.421 69.0205C145.452 68.6929 144.496 68.3833 143.567 68.0944C141.68 67.5112 139.869 66.9414 138.147 66.403C134.696 65.3722 131.596 64.4977 128.968 63.8161C123.724 62.4711 120.422 61.9395 120.241 62.5227C120.059 63.106 123.015 64.7122 128.01 66.8494C130.507 67.9179 133.517 69.1237 136.862 70.4039C138.554 71.0161 140.331 71.6902 142.187 72.3625C143.086 72.6989 144.007 73.0337 144.949 73.367C144.362 73.6047 143.788 73.8725 143.229 74.1693C140.85 75.2188 137.079 77.2702 130.737 80.1165C121.729 84.205 112.306 87.3113 102.63 89.3817C95.5684 90.8462 88.3712 91.5614 81.1583 91.5153C77.1839 91.4799 73.2159 91.1847 69.2799 90.6314C65.1708 90.0081 61.1069 89.1166 57.1144 87.9626C53.0635 86.7357 49.1077 85.2148 45.2787 83.4119C41.4035 81.5712 37.6885 79.4113 34.1721 76.9548C27.1938 72.105 21.1425 66.045 16.3056 59.0626C14.0223 55.7146 11.9992 52.1968 10.2544 48.5401C8.64074 45.0717 7.28954 41.4876 6.21212 37.8179C4.29874 31.5413 3.21362 25.0426 2.98428 18.4864C2.88921 14.0131 3.14547 9.53939 3.7507 5.1064C4.16329 3.48808 4.37526 1.8252 4.38183 0.155077C3.59523 1.64367 3.03331 3.24029 2.71426 4.89319C1.63377 9.36809 1.02221 13.9433 0.889499 18.545C0.733579 25.3827 1.52985 32.2094 3.25547 38.8292C4.24327 42.7208 5.52872 46.5311 7.10044 50.2264C8.80607 54.1519 10.8259 57.9338 13.1401 61.5353C18.0547 69.0769 24.3 75.6645 31.5718 80.9775C35.2322 83.6579 39.1117 86.026 43.1695 88.0568C47.184 90.0488 51.3445 91.7323 55.6149 93.0928C63.787 95.6719 72.2906 97.051 80.8588 97.1871C88.4115 97.2888 95.9522 96.5643 103.346 95.0265C113.442 92.9111 123.225 89.5119 132.455 84.9119C136.755 82.8116 140.879 80.3706 144.789 77.6124L145.208 77.2917C143.08 84.3153 141.51 91.4958 140.512 98.7664C139.628 105.156 139.652 109.165 140.252 109.255C141.478 109.47 144.356 93.9526 150.422 75.7457L150.701 74.7854Z" fill="white"/>
</svg>
