<svg width="41" height="40" viewBox="0 0 41 40" fill="none" xmlns="http://www.w3.org/2000/svg">
<path d="M16.1667 15.6021H5.50004C4.61599 15.6021 3.76814 15.9532 3.14302 16.5784C2.5179 17.2035 2.16671 18.0513 2.16671 18.9354V22.4421C2.16626 22.8777 2.25119 23.3091 2.41671 23.7121L7.57504 36.2371C7.70088 36.5424 7.9146 36.8035 8.18908 36.9872C8.46357 37.1709 8.78643 37.2689 9.11671 37.2687H37.1667C37.6087 37.2687 38.0327 37.0931 38.3452 36.7806C38.6578 36.468 38.8334 36.0441 38.8334 35.6021V18.9354C38.8334 18.4934 38.6578 18.0694 38.3452 17.7569C38.0327 17.4443 37.6087 17.2687 37.1667 17.2687H31.3634C31.0965 17.2688 30.8336 17.2048 30.5967 17.0821C30.3597 16.9594 30.1557 16.7816 30.0017 16.5637L20.9134 3.68539C20.7985 3.52257 20.6291 3.40632 20.4358 3.3577C20.2426 3.30909 20.0383 3.33132 19.86 3.42039L16.8367 4.93205C15.9859 5.35732 15.3062 6.06091 14.9105 6.92591C14.5148 7.79091 14.427 8.76526 14.6617 9.68705L16.1667 15.6021ZM28.8334 19.9154V33.9354H10.2334L5.50004 22.4421V18.9354H16.1667C16.6744 18.9353 17.1753 18.8193 17.6313 18.5962C18.0873 18.373 18.4863 18.0487 18.7979 17.6479C19.1095 17.2471 19.3254 16.7804 19.4292 16.2834C19.533 15.7865 19.5218 15.2724 19.3967 14.7804L17.8917 8.86705C17.8446 8.6826 17.8621 8.48758 17.9412 8.31443C18.0204 8.14129 18.1564 8.00047 18.3267 7.91539L19.4284 7.36539L27.2784 18.4854C27.695 19.0754 28.2284 19.5587 28.8334 19.9154V19.9154ZM32.1667 20.6021H35.5V33.9354H32.1667V20.6021Z" fill="url(#paint0_linear_611_1307)"/>
<defs>
<linearGradient id="paint0_linear_611_1307" x1="275.993" y1="6.472" x2="-55.3092" y2="77.8734" gradientUnits="userSpaceOnUse">
<stop offset="0.2" stop-color="#14B3F4"/>
<stop offset="0.4" stop-color="#6549D5"/>
<stop offset="0.6" stop-color="#E33FA1"/>
<stop offset="0.8" stop-color="#FB5343"/>
<stop offset="1" stop-color="#FD7B42"/>
</linearGradient>
</defs>
</svg>
