<svg width="38" height="34" viewBox="0 0 38 34" fill="none" xmlns="http://www.w3.org/2000/svg">
<path fill-rule="evenodd" clip-rule="evenodd" d="M3.9994 15.333C3.9994 9.21793 10.3487 3.66634 18.9994 3.66634C26.9538 3.66634 33.0307 8.40328 33.8909 13.923C34.0327 14.8325 34.8849 15.4549 35.7944 15.3131C36.7039 15.1714 37.3263 14.3192 37.1845 13.4097C35.9948 5.77607 28.045 0.333008 18.9994 0.333008C9.24014 0.333008 0.666064 6.72142 0.666064 15.333C0.666064 19.1338 2.38061 22.5438 5.10012 25.1278C4.22454 27.6315 2.61347 29.3619 1.15422 30.8212C0.677556 31.2978 0.534963 32.0147 0.792932 32.6375C1.0509 33.2603 1.65863 33.6663 2.33273 33.6663C4.86268 33.6663 6.89556 33.2761 8.70041 32.5209C10.4935 31.7707 11.9694 30.6978 13.4131 29.4688C14.114 28.8721 14.1985 27.8202 13.6018 27.1193C13.0051 26.4184 11.9533 26.3339 11.2524 26.9306C9.92777 28.0582 8.75358 28.8853 7.4138 29.4459C7.09749 29.5783 6.76673 29.6979 6.41702 29.8033C7.31895 28.4915 8.1317 26.9126 8.61674 24.9971C8.7745 24.3741 8.55998 23.7159 8.06542 23.3055C5.48522 21.1642 3.9994 18.3459 3.9994 15.333ZM17.3327 22.7397C17.3327 21.3459 18.0918 19.9493 19.5868 18.8419C21.0815 17.7347 23.2253 16.9997 25.666 16.9997C28.1067 16.9997 30.2505 17.7347 31.7452 18.8419C33.2402 19.9493 33.9993 21.3459 33.9993 22.7397C33.9993 24.1034 33.2758 25.4648 31.8506 26.5597C31.3145 26.9716 31.0803 27.6666 31.2578 28.3189C31.342 28.6284 31.4413 28.9233 31.5526 29.2041C31.1901 28.9634 30.8153 28.6774 30.3997 28.3384C29.9743 27.9912 29.4053 27.8759 28.8783 28.03C27.8922 28.3183 26.8097 28.4797 25.666 28.4797C25.6424 28.4797 25.6189 28.4802 25.5956 28.4811C23.1841 28.4672 21.0672 27.7357 19.5869 26.639C18.092 25.5315 17.3327 24.1345 17.3327 22.7397ZM25.666 31.8147C25.6927 31.8147 25.7193 31.814 25.7457 31.8128C26.8596 31.8071 27.9386 31.6812 28.9625 31.4497C29.7023 32.0097 30.4908 32.517 31.4113 32.9014C32.6313 33.4108 33.9878 33.6663 35.666 33.6663C36.3517 33.6663 36.9674 33.2464 37.2177 32.6081C37.468 31.9697 37.3018 31.2432 36.7989 30.7772C36.0452 30.0788 35.3094 29.3412 34.8302 28.378C36.3469 26.8837 37.3327 24.9414 37.3327 22.7397C37.3327 20.0434 35.8535 17.7368 33.7293 16.1633C31.6048 14.5897 28.7486 13.6663 25.666 13.6663C22.5834 13.6663 19.7272 14.5897 17.6027 16.1633C15.4786 17.7368 13.9993 20.0434 13.9993 22.7397C13.9993 25.4365 15.4784 27.7436 17.6026 29.3174C19.7271 30.8914 22.5834 31.8147 25.666 31.8147Z" fill="url(#paint0_linear_1004_8624)"/>
<defs>
<linearGradient id="paint0_linear_1004_8624" x1="-236.494" y1="3.41671" x2="94.2729" y2="75.9922" gradientUnits="userSpaceOnUse">
<stop offset="0.2" stop-color="#14B3F4"/>
<stop offset="0.4" stop-color="#6549D5"/>
<stop offset="0.6" stop-color="#E33FA1"/>
<stop offset="0.8" stop-color="#FB5343"/>
<stop offset="1" stop-color="#FD7B42"/>
</linearGradient>
</defs>
</svg>
