<svg width="39" height="37" viewBox="0 0 39 37" fill="none" xmlns="http://www.w3.org/2000/svg">
<path fill-rule="evenodd" clip-rule="evenodd" d="M7.99464 12.1495C7.73497 12.4091 7.58909 12.7613 7.58909 13.1285C7.58909 13.4958 7.73497 13.8479 7.99464 14.1076C8.2543 14.3673 8.60648 14.5131 8.97371 14.5131H20.0506C20.4179 14.5131 20.77 14.3673 21.0297 14.1076C21.2894 13.8479 21.4352 13.4958 21.4352 13.1285C21.4352 12.7613 21.2894 12.4091 21.0297 12.1495C20.77 11.8898 20.4179 11.7439 20.0506 11.7439H8.97371C8.60648 11.7439 8.2543 11.8898 7.99464 12.1495ZM7.99464 19.0725C8.2543 18.8129 8.60648 18.667 8.97371 18.667H20.0506C20.4179 18.667 20.77 18.8129 21.0297 19.0725C21.2894 19.3322 21.4352 19.6844 21.4352 20.0516C21.4352 20.4188 21.2894 20.771 21.0297 21.0307C20.77 21.2903 20.4179 21.4362 20.0506 21.4362H8.97371C8.60648 21.4362 8.2543 21.2903 7.99464 21.0307C7.73497 20.771 7.58909 20.4188 7.58909 20.0516C7.58909 19.6844 7.73497 19.3322 7.99464 19.0725ZM7.99464 25.9956C7.73497 26.2553 7.58909 26.6075 7.58909 26.9747C7.58909 27.3419 7.73497 27.6941 7.99464 27.9538C8.2543 28.2134 8.60648 28.3593 8.97371 28.3593H13.1276C13.4948 28.3593 13.847 28.2134 14.1066 27.9538C14.3663 27.6941 14.5122 27.3419 14.5122 26.9747C14.5122 26.6075 14.3663 26.2553 14.1066 25.9956C13.847 25.7359 13.4948 25.5901 13.1276 25.5901H8.97371C8.60648 25.5901 8.2543 25.7359 7.99464 25.9956ZM8.56816 1.07254C8.82783 1.3322 8.97371 1.68438 8.97371 2.05161V3.43622H13.1276V2.05161C13.1276 1.68438 13.2734 1.3322 13.5331 1.07254C13.7928 0.812871 14.1449 0.666992 14.5122 0.666992C14.8794 0.666992 15.2316 0.812871 15.4912 1.07254C15.7509 1.3322 15.8968 1.68438 15.8968 2.05161V3.43622H20.0506V2.05161C20.0506 1.68438 20.1965 1.3322 20.4562 1.07254C20.7158 0.812871 21.068 0.666992 21.4352 0.666992C21.8025 0.666992 22.1547 0.812871 22.4143 1.07254C22.674 1.3322 22.8199 1.68438 22.8199 2.05161V3.43622H24.2045C25.3061 3.43622 26.3627 3.87386 27.1417 4.65286C27.9207 5.43185 28.3583 6.4884 28.3583 7.59007V26.4485C28.3584 27.0246 28.2387 27.5943 28.0067 28.1216C27.7748 28.6488 27.4357 29.1221 27.0111 29.5113L20.3954 35.5759C19.6293 36.2778 18.6279 36.6671 17.5888 36.667H4.81986C3.71819 36.667 2.66165 36.2294 1.88265 35.4504C1.10365 34.6714 0.666016 33.6148 0.666016 32.5131V7.59007C0.666016 6.4884 1.10365 5.43185 1.88265 4.65286C2.66165 3.87386 3.71819 3.43622 4.81986 3.43622H6.20448V2.05161C6.20448 1.68438 6.35036 1.3322 6.61002 1.07254C6.86969 0.812871 7.22187 0.666992 7.58909 0.666992C7.95632 0.666992 8.3085 0.812871 8.56816 1.07254ZM24.2045 6.20545H4.81986C4.45264 6.20545 4.10046 6.35133 3.84079 6.611C3.58113 6.87066 3.43525 7.22285 3.43525 7.59007V32.5131C3.43525 32.8804 3.58113 33.2325 3.84079 33.4922C4.10046 33.7519 4.45264 33.8978 4.81986 33.8978H16.5891V29.0516C16.5891 28.1335 16.9538 27.2531 17.603 26.6039C18.2521 25.9548 19.1326 25.5901 20.0506 25.5901H25.5891V7.59007C25.5891 7.22285 25.4432 6.87066 25.1835 6.611C24.9239 6.35133 24.5717 6.20545 24.2045 6.20545ZM19.3583 29.0516V32.7693L24.1699 28.3593H20.0506C19.867 28.3593 19.6909 28.4322 19.5611 28.5621C19.4313 28.6919 19.3583 28.868 19.3583 29.0516ZM32.1253 11.9753H36.5124C36.7073 11.9751 36.9004 12.0133 37.0806 12.0877C37.2608 12.1622 37.4245 12.2715 37.5623 12.4094C37.7002 12.5473 37.8095 12.711 37.884 12.8911C37.9585 13.0713 37.9967 13.2644 37.9964 13.4594L38.081 31.3526L35.6206 35.206C35.5494 35.2948 35.4686 35.3756 35.3798 35.4468C35.2242 35.6009 35.0364 35.7186 34.8298 35.7914C34.6233 35.8642 34.4032 35.8904 34.1853 35.868C33.9675 35.8456 33.7573 35.7752 33.5699 35.6618C33.3826 35.5485 33.2226 35.395 33.1016 35.2125L30.6933 31.3591L30.6412 13.4594C30.641 13.2644 30.6792 13.0713 30.7537 12.8911C30.8281 12.711 30.9374 12.5473 31.0753 12.4094C31.2132 12.2715 31.3769 12.1622 31.557 12.0877C31.7372 12.0133 31.9303 11.9751 32.1253 11.9753ZM34.3449 33.7349L36.1999 30.8254L36.1609 17.3387L32.4898 17.3387L32.5354 30.8189L34.3449 33.7349ZM32.4898 15.8677H36.1609L36.1674 13.8304L32.4703 13.8304L32.4898 15.8677Z" fill="url(#paint0_linear_1004_8640)"/>
<defs>
<linearGradient id="paint0_linear_1004_8640" x1="-241.334" y1="3.99739" x2="97.855" y2="74.3142" gradientUnits="userSpaceOnUse">
<stop offset="0.2" stop-color="#14B3F4"/>
<stop offset="0.4" stop-color="#6549D5"/>
<stop offset="0.6" stop-color="#E33FA1"/>
<stop offset="0.8" stop-color="#FB5343"/>
<stop offset="1" stop-color="#FD7B42"/>
</linearGradient>
</defs>
</svg>
