<svg width="35" height="31" viewBox="0 0 35 31" fill="none" xmlns="http://www.w3.org/2000/svg">
<path d="M17.5016 2.5483C21.4166 -0.9667 27.4666 -0.850033 31.2383 2.9283C35.0083 6.7083 35.1383 12.7283 31.6316 16.655L17.4983 30.8083L3.36826 16.655C-0.138405 12.7283 -0.00673765 6.6983 3.7616 2.9283C7.5366 -0.845033 13.5749 -0.9717 17.5016 2.5483ZM28.8783 5.2833C26.3783 2.77997 22.3449 2.6783 19.7283 5.0283L17.5033 7.02497L15.2766 5.02997C12.6516 2.67663 8.6266 2.77997 6.11993 5.28663C3.6366 7.76997 3.5116 11.745 5.79993 14.3716L17.4999 26.09L29.1999 14.3733C31.4899 11.745 31.3649 7.77497 28.8783 5.2833Z" fill="url(#paint0_linear_215_357)"/>
<defs>
<linearGradient id="paint0_linear_215_357" x1="-214.77" y1="2.85011" x2="86.3814" y2="67.845" gradientUnits="userSpaceOnUse">
<stop offset="0.2" stop-color="#14B3F4"/>
<stop offset="0.4" stop-color="#6549D5"/>
<stop offset="0.6" stop-color="#E33FA1"/>
<stop offset="0.8" stop-color="#FB5343"/>
<stop offset="1" stop-color="#FD7B42"/>
</linearGradient>
</defs>
</svg>
