<svg width="41" height="40" viewBox="0 0 41 40" fill="none" xmlns="http://www.w3.org/2000/svg">
<path d="M20.501 5C29.4877 5 36.9644 11.4667 38.5327 20C36.966 28.5333 29.4877 35 20.501 35C11.5144 35 4.03769 28.5333 2.46936 20C4.03603 11.4667 11.5144 5 20.501 5ZM20.501 31.6667C23.9001 31.6659 27.1983 30.5114 29.8558 28.3919C32.5132 26.2725 34.3725 23.3138 35.1294 20C34.3697 16.6888 32.5093 13.7333 29.8521 11.6167C27.1949 9.50008 23.8982 8.34755 20.501 8.34755C17.1039 8.34755 13.8072 9.50008 11.15 11.6167C8.4928 13.7333 6.63231 16.6888 5.87269 20C6.62952 23.3138 8.48882 26.2725 11.1463 28.3919C13.8037 30.5114 17.1019 31.6659 20.501 31.6667V31.6667ZM20.501 27.5C18.5119 27.5 16.6042 26.7098 15.1977 25.3033C13.7912 23.8968 13.001 21.9891 13.001 20C13.001 18.0109 13.7912 16.1032 15.1977 14.6967C16.6042 13.2902 18.5119 12.5 20.501 12.5C22.4901 12.5 24.3978 13.2902 25.8043 14.6967C27.2108 16.1032 28.001 18.0109 28.001 20C28.001 21.9891 27.2108 23.8968 25.8043 25.3033C24.3978 26.7098 22.4901 27.5 20.501 27.5ZM20.501 24.1667C21.6061 24.1667 22.6659 23.7277 23.4473 22.9463C24.2287 22.1649 24.6677 21.1051 24.6677 20C24.6677 18.8949 24.2287 17.8351 23.4473 17.0537C22.6659 16.2723 21.6061 15.8333 20.501 15.8333C19.396 15.8333 18.3361 16.2723 17.5547 17.0537C16.7733 17.8351 16.3344 18.8949 16.3344 20C16.3344 21.1051 16.7733 22.1649 17.5547 22.9463C18.3361 23.7277 19.396 24.1667 20.501 24.1667Z" fill="url(#paint0_linear_611_1331)"/>
<defs>
<linearGradient id="paint0_linear_611_1331" x1="-230.788" y1="7.77534" x2="91.6585" y2="85.0926" gradientUnits="userSpaceOnUse">
<stop offset="0.2" stop-color="#14B3F4"/>
<stop offset="0.4" stop-color="#6549D5"/>
<stop offset="0.6" stop-color="#E33FA1"/>
<stop offset="0.8" stop-color="#FB5343"/>
<stop offset="1" stop-color="#FD7B42"/>
</linearGradient>
</defs>
</svg>
