<svg width="24" height="24" viewBox="0 0 24 24" fill="none" xmlns="http://www.w3.org/2000/svg">
<path d="M5.7 19.364C4.98392 19.364 4.29716 19.0731 3.79081 18.5552C3.28446 18.0374 3 17.335 3 16.6026V7.39808C3 6.66572 3.28446 5.96336 3.79081 5.4455C4.29716 4.92765 4.98392 4.63672 5.7 4.63672H18.3C19.0161 4.63672 19.7028 4.92765 20.2092 5.4455C20.7155 5.96336 21 6.66572 21 7.39808V16.6026C21 17.335 20.7155 18.0374 20.2092 18.5552C19.7028 19.0731 19.0161 19.364 18.3 19.364H5.7ZM4.8 16.6026C4.8 16.8467 4.89482 17.0809 5.0636 17.2535C5.23239 17.4261 5.46131 17.5231 5.7 17.5231H18.3C18.5387 17.5231 18.7676 17.4261 18.9364 17.2535C19.1052 17.0809 19.2 16.8467 19.2 16.6026V7.39808C19.2 7.15396 19.1052 6.91984 18.9364 6.74722C18.7676 6.5746 18.5387 6.47763 18.3 6.47763H5.7C5.46131 6.47763 5.23239 6.5746 5.0636 6.74722C4.89482 6.91984 4.8 7.15396 4.8 7.39808V16.6026ZM6.798 8.66371C6.94712 8.47326 7.16408 8.35115 7.40119 8.32423C7.6383 8.2973 7.87616 8.36776 8.0625 8.52012L11.4375 11.2815C11.5971 11.4122 11.7955 11.4834 12 11.4834C12.2045 11.4834 12.4029 11.4122 12.5625 11.2815L15.9375 8.52012C16.1239 8.36754 16.362 8.29695 16.5993 8.32388C16.8366 8.35081 17.0537 8.47305 17.2029 8.66371C17.3521 8.85436 17.4211 9.09782 17.3948 9.34053C17.3684 9.58323 17.2489 9.80529 17.0625 9.95787L13.6875 12.7192C13.2086 13.1114 12.6135 13.325 12 13.325C11.3865 13.325 10.7914 13.1114 10.3125 12.7192L6.9375 9.95787C6.84516 9.88234 6.76828 9.78895 6.71125 9.68302C6.65422 9.5771 6.61816 9.46072 6.60512 9.34054C6.59208 9.22035 6.60232 9.09872 6.63526 8.98259C6.66821 8.86645 6.7232 8.7581 6.7971 8.66371H6.798Z" fill="white"/>
</svg>
