<svg width="25" height="24" viewBox="0 0 25 24" fill="none" xmlns="http://www.w3.org/2000/svg">
<path d="M21.5 16.42V19.956C21.5001 20.2092 21.4042 20.453 21.2316 20.6382C21.059 20.8234 20.8226 20.9363 20.57 20.954C20.133 20.984 19.776 21 19.5 21C10.663 21 3.5 13.837 3.5 5C3.5 4.724 3.515 4.367 3.546 3.93C3.56372 3.67744 3.67658 3.44101 3.8618 3.26841C4.04703 3.09581 4.29082 2.99989 4.544 3H8.08C8.20404 2.99987 8.3237 3.04586 8.41573 3.12902C8.50776 3.21218 8.5656 3.32658 8.578 3.45C8.601 3.68 8.622 3.863 8.642 4.002C8.84073 5.38892 9.248 6.73783 9.85 8.003C9.945 8.203 9.883 8.442 9.703 8.57L7.545 10.112C8.86445 13.1865 11.3145 15.6365 14.389 16.956L15.929 14.802C15.9919 14.714 16.0838 14.6509 16.1885 14.6237C16.2932 14.5964 16.4042 14.6068 16.502 14.653C17.767 15.2539 19.1156 15.6601 20.502 15.858C20.641 15.878 20.824 15.9 21.052 15.922C21.1752 15.9346 21.2894 15.9926 21.3724 16.0846C21.4553 16.1766 21.5012 16.2961 21.501 16.42H21.5Z" fill="white"/>
</svg>
