<svg width="52" height="52" viewBox="0 0 52 52" fill="none" xmlns="http://www.w3.org/2000/svg">
<path fill-rule="evenodd" clip-rule="evenodd" d="M13.7438 37.5775C10.4932 40.8281 8.66699 45.2369 8.66699 49.834H13.0003C13.0003 46.3862 14.37 43.0796 16.8079 40.6416C19.2459 38.2036 22.5525 36.834 26.0003 36.834C29.4481 36.834 32.7547 38.2036 35.1927 40.6416C37.6307 43.0796 39.0003 46.3862 39.0003 49.834H43.3337C43.3337 45.2369 41.5075 40.8281 38.2568 37.5775C35.0062 34.3268 30.5974 32.5007 26.0003 32.5007C21.4032 32.5007 16.9944 34.3268 13.7438 37.5775ZM13.0003 17.334C13.0003 24.5165 18.8178 30.334 26.0003 30.334C33.1828 30.334 39.0003 24.5165 39.0003 17.334C39.0003 10.1515 33.1828 4.33398 26.0003 4.33398C18.8178 4.33398 13.0003 10.1515 13.0003 17.334ZM34.667 17.334C34.667 22.1223 30.7887 26.0007 26.0003 26.0007C21.212 26.0007 17.3337 22.1223 17.3337 17.334C17.3337 12.5457 21.212 8.66732 26.0003 8.66732C30.7887 8.66732 34.667 12.5457 34.667 17.334Z" fill="white" fill-opacity="0.2"/>
</svg>
