<svg width="136" height="100" viewBox="0 0 136 100" fill="none" xmlns="http://www.w3.org/2000/svg">
<path fill-rule="evenodd" clip-rule="evenodd" d="M43.1936 10.3061C51.4433 9.59066 59.7194 9.22163 68 9.19997C76.5227 9.19997 84.9365 9.64423 92.8064 10.3061C102.272 11.104 108.401 11.648 113.079 12.7541C117.341 13.7605 119.725 15.0933 121.774 17.1877C121.992 17.4144 122.318 17.7589 122.518 18.0037C124.331 20.089 125.51 22.7002 126.19 27.6325C126.915 32.9184 126.933 39.809 126.933 50.2266C126.933 60.5173 126.915 67.3173 126.19 72.5306C125.519 77.3904 124.34 79.9744 122.518 82.0869C122.274 82.3656 122.023 82.6377 121.765 82.9029C119.68 85.0245 117.323 86.3392 113.17 87.3184C108.573 88.4064 102.58 88.9322 93.2779 89.712C85.3989 90.3648 76.8491 90.8 68 90.8C59.1509 90.8 50.592 90.3648 42.7221 89.712C33.4197 88.9322 27.4267 88.4064 22.8299 87.3184C18.6683 86.3392 16.3109 85.0245 14.2347 82.9029C13.9766 82.6376 13.7257 82.3655 13.4821 82.0869C11.6688 79.9744 10.4901 77.3904 9.81013 72.5306C9.0848 67.3173 9.06667 60.5173 9.06667 50.2266C9.06667 39.809 9.0848 32.9093 9.81013 27.6325C10.4901 22.7002 11.6688 20.089 13.4821 18.0037C13.6907 17.7589 14.008 17.4144 14.2256 17.1877C16.2747 15.0933 18.6592 13.7605 22.9205 12.7541C27.608 11.648 33.728 11.104 43.1936 10.3061ZM0 50.2266C0 29.8992 0 19.7354 6.61867 12.0741C6.94507 11.6933 7.38933 11.2128 7.74293 10.8501C14.8149 3.60583 24.0267 2.8261 42.432 1.2757C50.5013 0.586633 59.1781 0.133301 68 0.133301C76.8219 0.133301 85.4987 0.586633 93.568 1.2757C111.973 2.8261 121.185 3.60583 128.257 10.8501C128.611 11.2128 129.046 11.6933 129.381 12.0741C136 19.7354 136 29.8992 136 50.2266C136 70.3093 136 80.3552 129.372 88.0165C129.006 88.4351 128.628 88.8433 128.239 89.2405C121.158 96.4848 112.118 97.2373 94.0304 98.7424C85.952 99.4224 77.1392 99.8666 68 99.8666C58.8608 99.8666 50.048 99.4133 41.9787 98.7424C23.8816 97.2373 14.8421 96.4757 7.76107 89.2405C7.37204 88.8431 6.99412 88.4349 6.62773 88.0165C0 80.3552 0 70.3093 0 50.2266ZM47.6 30.8058C47.5987 30.4288 47.6914 30.0574 47.8699 29.7253C48.0483 29.3931 48.3068 29.1107 48.6218 28.9037C48.9369 28.6966 49.2987 28.5714 49.6744 28.5394C50.0501 28.5074 50.4278 28.5697 50.7733 28.7205L94.5472 47.9237C96.3605 48.7216 96.3605 51.2784 94.5472 52.0762L50.7733 71.2704C50.4285 71.4209 50.0516 71.4832 49.6766 71.4516C49.3017 71.4201 48.9405 71.2957 48.6257 71.0897C48.3108 70.8837 48.0522 70.6025 47.8731 70.2716C47.694 69.9407 47.6002 69.5704 47.6 69.1941V30.8058Z" fill="white"/>
</svg>
